<svg width="434" height="98" viewBox="0 0 434 98" fill="none" xmlns="http://www.w3.org/2000/svg">
<path d="M142.376 40.64V34.4H116.984V68H124.76V55.76H140.312V49.52H124.76V40.64H142.376Z" fill="white"/>
<path d="M153.796 45.584V42.176H146.643V68H154.132V55.808C154.132 50.864 156.867 48.608 160.995 48.608C161.572 48.608 162.052 48.656 162.676 48.704V41.792C158.692 41.792 155.62 43.088 153.796 45.584Z" fill="white"/>
<path d="M192.189 55.184C192.189 46.88 186.333 41.792 178.749 41.792C170.878 41.792 164.973 47.36 164.973 55.088C164.973 62.768 170.782 68.384 179.71 68.384C184.366 68.384 187.966 66.944 190.366 64.208L186.382 59.888C184.605 61.568 182.637 62.384 179.902 62.384C175.965 62.384 173.23 60.416 172.51 57.2H192.046C192.094 56.576 192.189 55.76 192.189 55.184ZM178.798 47.456C182.158 47.456 184.605 49.568 185.133 52.832H172.413C172.941 49.52 175.389 47.456 178.798 47.456Z" fill="white"/>
<path d="M222.471 55.184C222.471 46.88 216.615 41.792 209.031 41.792C201.159 41.792 195.255 47.36 195.255 55.088C195.255 62.768 201.063 68.384 209.991 68.384C214.647 68.384 218.247 66.944 220.647 64.208L216.663 59.888C214.887 61.568 212.919 62.384 210.183 62.384C206.247 62.384 203.511 60.416 202.791 57.2H222.327C222.375 56.576 222.471 55.76 222.471 55.184ZM209.079 47.456C212.439 47.456 214.887 49.568 215.415 52.832H202.695C203.223 49.52 205.671 47.456 209.079 47.456Z" fill="white"/>
<path d="M251.024 34.4V47.648H235.76V34.4H227.984V68H235.76V54.224H251.024V68H258.8V34.4H251.024Z" fill="white"/>
<path d="M284.75 42.176V54.944C284.75 59.696 282.254 61.904 278.798 61.904C275.486 61.904 273.566 59.984 273.566 55.664V42.176H266.078V56.768C266.078 64.736 270.638 68.384 277.118 68.384C280.286 68.384 283.166 67.184 285.134 64.928V68H292.238V42.176H284.75Z" fill="white"/>
<path d="M332.247 41.792C328.359 41.792 324.999 43.376 322.935 46.016C321.111 43.184 318.039 41.792 314.439 41.792C311.127 41.792 308.247 42.944 306.327 45.152V42.176H299.175V68H306.663V55.04C306.663 50.432 309.015 48.272 312.327 48.272C315.447 48.272 317.223 50.192 317.223 54.368V68H324.711V55.04C324.711 50.432 327.063 48.272 330.423 48.272C333.447 48.272 335.319 50.192 335.319 54.368V68H342.807V53.216C342.807 45.344 338.391 41.792 332.247 41.792Z" fill="white"/>
<path d="M359.935 41.792C355.807 41.792 351.63 42.896 348.798 44.912L351.487 50.144C353.359 48.656 356.191 47.744 358.927 47.744C362.959 47.744 364.879 49.616 364.879 52.832H358.927C351.055 52.832 347.839 56 347.839 60.56C347.839 65.024 351.439 68.384 357.487 68.384C361.279 68.384 363.966 67.136 365.358 64.784V68H372.367V53.264C372.367 45.44 367.807 41.792 359.935 41.792ZM359.358 63.344C356.718 63.344 355.134 62.096 355.134 60.224C355.134 58.496 356.238 57.2 359.742 57.2H364.879V59.84C364.014 62.192 361.854 63.344 359.358 63.344Z" fill="white"/>
<path d="M394.84 41.792C391.336 41.792 388.311 42.992 386.296 45.2V42.176H379.143V68H386.632V55.232C386.632 50.48 389.223 48.272 392.823 48.272C396.135 48.272 398.056 50.192 398.056 54.368V68H405.543V53.216C405.543 45.344 400.936 41.792 394.84 41.792Z" fill="white"/>
<path d="M421.019 68.384C428.747 68.384 433.211 64.976 433.211 60.176C433.211 50 417.611 54.272 417.611 49.856C417.611 48.512 419.051 47.456 422.411 47.456C424.763 47.456 427.307 47.936 429.851 49.376L432.347 44.048C429.899 42.608 425.963 41.792 422.411 41.792C414.875 41.792 410.459 45.248 410.459 50.144C410.459 60.464 426.059 56.144 426.059 60.368C426.059 61.808 424.763 62.72 421.307 62.72C418.139 62.72 414.635 61.712 412.331 60.224L409.835 65.6C412.235 67.184 416.651 68.384 421.019 68.384Z" fill="white"/>
<path fill-rule="evenodd" clip-rule="evenodd" d="M48.935 29.0001L49 29L49.065 29.0001C51.2741 29.0072 53.0592 30.8037 53.0522 33.0129C53.0451 35.222 51.2486 37.0071 49.0394 37.0001L49 37L48.9606 37.0001C46.7514 37.0071 44.9549 35.222 44.9478 33.0129C44.9408 30.8037 46.7259 29.0072 48.935 29.0001ZM57.4394 34.8303C58.9964 33.2632 61.5291 33.255 63.0962 34.8121C63.1269 34.8426 63.1574 34.8731 63.1879 34.9038C64.745 36.4709 64.7368 39.0036 63.1697 40.5606C61.6025 42.1177 59.0699 42.1095 57.5128 40.5424L57.4576 40.4872C55.8905 38.9301 55.8823 36.3975 57.4394 34.8303ZM40.5606 34.8303C42.1177 36.3975 42.1095 38.9301 40.5424 40.4872L40.4872 40.5424C38.9301 42.1095 36.3975 42.1177 34.8303 40.5606C33.2632 39.0036 33.255 36.4709 34.8121 34.9038C34.8426 34.8731 34.8731 34.8426 34.9038 34.8121C36.4709 33.255 39.0036 33.2632 40.5606 34.8303ZM33.0129 44.9478C35.222 44.9549 37.0071 46.7514 37.0001 48.9606L37 49L37.0001 49.0394C37.0071 51.2486 35.222 53.0451 33.0129 53.0522C30.8037 53.0592 29.0072 51.2741 29.0001 49.065L29 49L29.0001 48.935C29.0072 46.7259 30.8037 44.9408 33.0129 44.9478ZM64.9871 44.9478C67.1963 44.9408 68.9928 46.7259 68.9999 48.935L69 49L68.9999 49.065C68.9928 51.2741 67.1963 53.0592 64.9871 53.0522C62.778 53.0451 60.9929 51.2486 60.9999 49.0394L61 49L60.9999 48.9606C60.9929 46.7514 62.778 44.9549 64.9871 44.9478ZM63.1697 57.4394C64.7368 58.9964 64.745 61.5291 63.1879 63.0962C63.1574 63.1269 63.1269 63.1574 63.0962 63.1879C61.5291 64.745 58.9964 64.7368 57.4394 63.1697C55.8823 61.6025 55.8905 59.0699 57.4576 57.5128L57.5128 57.4576C59.0699 55.8905 61.6025 55.8823 63.1697 57.4394ZM34.8303 57.4394C36.3975 55.8823 38.9301 55.8905 40.4872 57.4576L40.5424 57.5128C42.1095 59.0699 42.1177 61.6025 40.5606 63.1697C39.0036 64.7368 36.4709 64.745 34.9038 63.1879C34.8731 63.1574 34.8426 63.1269 34.8121 63.0962C33.255 61.5291 33.2632 58.9964 34.8303 57.4394ZM44.9478 64.9871C44.9549 62.778 46.7514 60.9929 48.9606 60.9999L49 61L49.0394 60.9999C51.2486 60.9929 53.0451 62.778 53.0522 64.9871C53.0592 67.1963 51.2741 68.9928 49.065 68.9999L49 69L48.935 68.9999C46.7259 68.9928 44.9408 67.1963 44.9478 64.9871Z" fill="#6C7DF7"/>
<path fill-rule="evenodd" clip-rule="evenodd" d="M49.4495 18.5L49.5 18.5L49.5505 18.5C51.4835 18.5031 53.048 20.0726 53.0449 22.0056C53.0418 23.9386 51.4723 25.5031 49.5393 25.5L49.5 25.5L49.4607 25.5C47.5277 25.5031 45.9582 23.9386 45.9551 22.0056C45.952 20.0726 47.5165 18.5031 49.4495 18.5ZM42.2497 22.7343C42.9873 24.521 42.1367 26.5674 40.3499 27.3049L40.2781 27.3347C38.4938 28.078 36.4447 27.2341 35.7013 25.4498C34.958 23.6654 35.8019 21.6163 37.5862 20.873L37.6791 20.8345C39.4659 20.0969 41.5122 20.9475 42.2497 22.7343ZM56.7503 22.7343C57.4878 20.9475 59.5341 20.0969 61.3209 20.8345L61.4138 20.873C63.1981 21.6163 64.042 23.6654 63.2987 25.4498C62.5553 27.2341 60.5062 28.078 58.7219 27.3347L58.6501 27.3049C56.8633 26.5674 56.0127 24.521 56.7503 22.7343ZM32.565 27.5522C33.9296 28.9212 33.9261 31.1373 32.557 32.5019L32.5019 32.557C31.1373 33.9261 28.9212 33.9296 27.5522 32.565C26.1831 31.2004 26.1795 28.9843 27.5442 27.6153L27.6153 27.5442C28.9843 26.1795 31.2004 26.1831 32.565 27.5522ZM66.435 27.5522C67.7996 26.1831 70.0157 26.1795 71.3847 27.5442L71.4558 27.6153C72.8205 28.9843 72.8169 31.2004 71.4479 32.565C70.0788 33.9296 67.8627 33.9261 66.4981 32.557L66.443 32.5019C65.0739 31.1373 65.0704 28.9212 66.435 27.5522ZM25.4498 35.7013C27.2341 36.4447 28.078 38.4938 27.3347 40.2781L27.3049 40.3499C26.5674 42.1367 24.521 42.9873 22.7343 42.2497C20.9475 41.5122 20.0969 39.4659 20.8345 37.6791L20.873 37.5862C21.6163 35.8019 23.6654 34.958 25.4498 35.7013ZM73.5502 35.7013C75.3346 34.958 77.3837 35.8019 78.127 37.5862L78.1656 37.6791C78.9031 39.4659 78.0525 41.5122 76.2657 42.2497C74.479 42.9873 72.4326 42.1367 71.6951 40.3499L71.6653 40.2781C70.922 38.4938 71.7659 36.4447 73.5502 35.7013ZM22.0056 45.9551C23.9386 45.9582 25.5031 47.5277 25.5 49.4607L25.5 49.5L25.5 49.5393C25.5031 51.4723 23.9386 53.0418 22.0056 53.0449C20.0726 53.048 18.5031 51.4835 18.5 49.5505L18.5 49.5L18.5 49.4495C18.5031 47.5165 20.0726 45.952 22.0056 45.9551ZM76.9944 45.9551C78.9274 45.952 80.4969 47.5165 80.5 49.4495L80.5 49.5L80.5 49.5505C80.4969 51.4835 78.9274 53.048 76.9944 53.0449C75.0614 53.0418 73.4969 51.4723 73.5 49.5393L73.5 49.5L73.5 49.4607C73.4969 47.5277 75.0614 45.9582 76.9944 45.9551ZM22.7343 56.7503C24.521 56.0127 26.5674 56.8633 27.3049 58.6501L27.3347 58.7219C28.078 60.5062 27.2341 62.5553 25.4498 63.2987C23.6654 64.042 21.6163 63.1981 20.873 61.4138L20.8345 61.3209C20.0969 59.5341 20.9475 57.4878 22.7343 56.7503ZM76.2657 56.7503C78.0525 57.4878 78.9031 59.5341 78.1655 61.3209L78.127 61.4138C77.3837 63.1981 75.3346 64.042 73.5502 63.2987C71.7659 62.5553 70.922 60.5062 71.6653 58.7219L71.6951 58.6501C72.4326 56.8633 74.479 56.0127 76.2657 56.7503ZM27.5522 66.435C28.9212 65.0704 31.1373 65.0739 32.5019 66.443L32.557 66.4981C33.9261 67.8627 33.9296 70.0788 32.565 71.4478C31.2004 72.8169 28.9843 72.8204 27.6153 71.4558L27.5442 71.3847C26.1795 70.0157 26.1831 67.7996 27.5522 66.435ZM71.4478 66.435C72.8169 67.7996 72.8204 70.0157 71.4558 71.3847L71.3847 71.4558C70.0157 72.8205 67.7996 72.8169 66.435 71.4479C65.0704 70.0788 65.0739 67.8627 66.443 66.4981L66.4981 66.443C67.8627 65.0739 70.0788 65.0704 71.4478 66.435ZM35.7013 73.5502C36.4447 71.7659 38.4938 70.922 40.2781 71.6653L40.3499 71.6951C42.1367 72.4326 42.9873 74.479 42.2497 76.2657C41.5122 78.0525 39.4659 78.9031 37.6791 78.1655L37.5862 78.127C35.8019 77.3837 34.958 75.3346 35.7013 73.5502ZM63.2987 73.5502C64.042 75.3346 63.1981 77.3837 61.4138 78.127L61.3209 78.1656C59.5341 78.9031 57.4878 78.0525 56.7503 76.2657C56.0127 74.479 56.8633 72.4326 58.6501 71.6951L58.7219 71.6653C60.5062 70.922 62.5553 71.7659 63.2987 73.5502ZM45.9551 76.9944C45.9582 75.0614 47.5277 73.4969 49.4607 73.5L49.5 73.5L49.5393 73.5C51.4723 73.4969 53.0418 75.0614 53.0449 76.9944C53.048 78.9274 51.4835 80.4969 49.5505 80.5L49.5 80.5L49.4495 80.5C47.5165 80.4969 45.952 78.9274 45.9551 76.9944Z" fill="#6C7DF7"/>
<path fill-rule="evenodd" clip-rule="evenodd" d="M49.4472 9.00003L49.5 9L49.5528 9.00003C51.2096 9.00215 52.5511 10.347 52.549 12.0039C52.5468 13.6607 51.202 15.0021 49.5451 15L49.5 15L49.4549 15C47.798 15.0021 46.4532 13.6607 46.451 12.0039C46.4489 10.347 47.7904 9.00215 49.4472 9.00003ZM40.8087 12.8882C41.3184 14.4647 40.4535 16.1559 38.877 16.6656L38.7917 16.6933C37.2166 17.207 35.5231 16.3466 35.0093 14.7714C34.4956 13.1962 35.356 11.5028 36.9312 10.989L37.0314 10.9565C38.6079 10.4468 40.2991 11.3117 40.8087 12.8882ZM58.1913 12.8882C58.7009 11.3117 60.3921 10.4468 61.9686 10.9565L62.0688 10.989C63.644 11.5028 64.5045 13.1962 63.9907 14.7714C63.4769 16.3466 61.7835 17.207 60.2083 16.6933L60.123 16.6656C58.5465 16.1559 57.6816 14.4647 58.1913 12.8882ZM29.9241 17.3687C30.8973 18.7096 30.5993 20.5856 29.2584 21.5588L29.1859 21.6115C27.8476 22.5882 25.9708 22.295 24.9941 20.9566C24.0175 19.6182 24.3106 17.7415 25.649 16.7648L25.734 16.703C27.0749 15.7297 28.9509 16.0278 29.9241 17.3687ZM69.0759 17.3687C70.0491 16.0278 71.9251 15.7298 73.266 16.703L73.351 16.7648C74.6894 17.7415 74.9826 19.6182 74.0059 20.9566C73.0292 22.295 71.1525 22.5882 69.8141 21.6115L69.7417 21.5588C68.4008 20.5856 68.1027 18.7096 69.0759 17.3687ZM20.9566 24.9941C22.295 25.9708 22.5882 27.8475 21.6115 29.1859L21.5588 29.2584C20.5856 30.5992 18.7096 30.8973 17.3687 29.9241C16.0278 28.9509 15.7298 27.0749 16.703 25.734L16.7648 25.649C17.7415 24.3106 19.6182 24.0174 20.9566 24.9941ZM78.0434 24.9941C79.3818 24.0175 81.2585 24.3106 82.2352 25.649L82.297 25.734C83.2702 27.0749 82.9722 28.9509 81.6313 29.9241C80.2904 30.8973 78.4144 30.5993 77.4412 29.2584L77.3885 29.1859C76.4118 27.8476 76.705 25.9708 78.0434 24.9941ZM14.7714 35.0093C16.3466 35.5231 17.207 37.2165 16.6933 38.7917L16.6656 38.877C16.1559 40.4535 14.4647 41.3184 12.8882 40.8087C11.3117 40.2991 10.4468 38.6079 10.9565 37.0314L10.989 36.9312C11.5028 35.356 13.1962 34.4955 14.7714 35.0093ZM84.2286 35.0093C85.8038 34.4956 87.4972 35.356 88.011 36.9312L88.0435 37.0314C88.5532 38.6079 87.6883 40.2991 86.1118 40.8087C84.5353 41.3184 82.8441 40.4535 82.3344 38.877L82.3067 38.7917C81.793 37.2166 82.6534 35.5231 84.2286 35.0093ZM12.0039 46.451C13.6607 46.4532 15.0021 47.798 15 49.4549L15 49.5L15 49.5451C15.0021 51.202 13.6607 52.5468 12.0039 52.549C10.347 52.5511 9.00215 51.2096 9.00003 49.5528L9 49.5L9.00003 49.4472C9.00215 47.7904 10.347 46.4489 12.0039 46.451ZM86.9961 46.451C88.653 46.4489 89.9978 47.7904 90 49.4472L90 49.5L90 49.5528C89.9978 51.2096 88.653 52.5511 86.9961 52.549C85.3393 52.5468 83.9979 51.202 84 49.5451L84 49.5L84 49.4549C83.9979 47.798 85.3393 46.4532 86.9961 46.451ZM12.8882 58.1913C14.4647 57.6816 16.1559 58.5465 16.6656 60.123L16.6933 60.2083C17.207 61.7835 16.3466 63.4769 14.7714 63.9907C13.1962 64.5044 11.5028 63.644 10.989 62.0688L10.9565 61.9686C10.4468 60.3921 11.3117 58.7009 12.8882 58.1913ZM86.1118 58.1913C87.6883 58.7009 88.5532 60.3921 88.0435 61.9686L88.011 62.0688C87.4972 63.644 85.8038 64.5045 84.2286 63.9907C82.6534 63.4769 81.793 61.7835 82.3067 60.2083L82.3344 60.123C82.8441 58.5465 84.5353 57.6816 86.1118 58.1913ZM17.3687 69.0759C18.7096 68.1027 20.5856 68.4007 21.5588 69.7416L21.6115 69.8141C22.5882 71.1524 22.295 73.0292 20.9566 74.0059C19.6182 74.9826 17.7415 74.6893 16.7648 73.351L16.703 73.266C15.7297 71.9251 16.0278 70.0491 17.3687 69.0759ZM81.6313 69.0759C82.9722 70.0491 83.2702 71.9251 82.297 73.266L82.2352 73.351C81.2585 74.6894 79.3818 74.9826 78.0434 74.0059C76.705 73.0292 76.4118 71.1525 77.3885 69.8141L77.4412 69.7417C78.4144 68.4008 80.2904 68.1027 81.6313 69.0759ZM24.9941 78.0434C25.9708 76.705 27.8475 76.4118 29.1859 77.3885L29.2584 77.4412C30.5992 78.4144 30.8973 80.2904 29.9241 81.6313C28.9509 82.9722 27.0749 83.2702 25.734 82.297L25.649 82.2352C24.3106 81.2585 24.0174 79.3818 24.9941 78.0434ZM74.0059 78.0434C74.9826 79.3818 74.6893 81.2585 73.351 82.2352L73.266 82.297C71.9251 83.2702 70.0491 82.9722 69.0759 81.6313C68.1027 80.2904 68.4007 78.4144 69.7416 77.4412L69.8141 77.3885C71.1524 76.4118 73.0292 76.705 74.0059 78.0434ZM35.0093 84.2286C35.5231 82.6534 37.2165 81.793 38.7917 82.3067L38.877 82.3344C40.4535 82.8441 41.3184 84.5353 40.8087 86.1118C40.2991 87.6883 38.6079 88.5532 37.0314 88.0435L36.9312 88.011C35.356 87.4972 34.4955 85.8038 35.0093 84.2286ZM63.9907 84.2286C64.5044 85.8038 63.644 87.4972 62.0688 88.011L61.9686 88.0435C60.3921 88.5532 58.7009 87.6883 58.1913 86.1118C57.6816 84.5353 58.5465 82.8441 60.123 82.3344L60.2083 82.3067C61.7835 81.793 63.4769 82.6534 63.9907 84.2286ZM46.451 86.9961C46.4532 85.3393 47.798 83.9979 49.4549 84L49.5 84L49.5451 84C51.202 83.9979 52.5468 85.3393 52.549 86.9961C52.5511 88.653 51.2096 89.9978 49.5528 90L49.5 90L49.4472 90C47.7904 89.9978 46.4489 88.653 46.451 86.9961Z" fill="#6C7DF7"/>
<path fill-rule="evenodd" clip-rule="evenodd" d="M49.1549 0.500028L49.2078 0.5L49.2608 0.500028C50.6415 0.501498 51.7596 1.62198 51.7581 3.00269C51.7567 4.3834 50.6362 5.5015 49.2555 5.50003L49.2078 5.5L49.1602 5.50003C47.7795 5.5015 46.659 4.3834 46.6576 3.00269C46.6561 1.62198 47.7742 0.501498 49.1549 0.500028ZM39.7083 3.90793C40.0634 5.2422 39.2697 6.6117 37.9354 6.96679L37.8439 6.99125C36.5104 7.34926 35.1392 6.55848 34.7812 5.22499C34.4231 3.8915 35.2139 2.52027 36.5474 2.16226L36.6495 2.13498C37.9837 1.77988 39.3532 2.57366 39.7083 3.90793ZM58.7074 3.90793C59.0625 2.57366 60.432 1.77989 61.7662 2.13498L61.8683 2.16226C63.2018 2.52027 63.9926 3.8915 63.6346 5.22499C63.2765 6.55848 61.9053 7.34926 60.5718 6.99125L60.4803 6.96679C59.146 6.6117 58.3523 5.2422 58.7074 3.90793ZM28.3088 7.90924C28.9989 9.10508 28.589 10.634 27.3932 11.3242L27.3113 11.3715C26.117 12.0643 24.5872 11.6577 23.8944 10.4633C23.2017 9.269 23.6083 7.7392 24.8026 7.04644L24.8938 6.99366C26.0897 6.30348 27.6186 6.7134 28.3088 7.90924ZM70.1069 7.90924C70.7971 6.71341 72.326 6.30348 73.5219 6.99366L73.6131 7.04644C74.8074 7.7392 75.214 9.269 74.5213 10.4633C73.8285 11.6577 72.2987 12.0643 71.1044 11.3715L71.0225 11.3242C69.8267 10.634 69.4168 9.10508 70.1069 7.90924ZM18.339 14.7328C19.3143 15.7101 19.3126 17.293 18.3352 18.2683L18.2683 18.3352C17.293 19.3126 15.7101 19.3143 14.7328 18.339C13.7554 17.3637 13.7537 15.7808 14.729 14.8035L14.8035 14.729C15.7808 13.7537 17.3637 13.7554 18.339 14.7328ZM80.0767 14.7328C81.052 13.7554 82.6349 13.7537 83.6122 14.729L83.6867 14.8035C84.662 15.7808 84.6603 17.3637 83.6829 18.339C82.7056 19.3143 81.1227 19.3126 80.1474 18.3352L80.0805 18.2683C79.1031 17.293 79.1014 15.7101 80.0767 14.7328ZM10.4633 23.8944C11.6577 24.5872 12.0643 26.117 11.3715 27.3113L11.3242 27.3932C10.634 28.589 9.10508 28.9989 7.90924 28.3088C6.71341 27.6186 6.30348 26.0897 6.99366 24.8938L7.04644 24.8026C7.7392 23.6083 9.269 23.2017 10.4633 23.8944ZM87.9524 23.8944C89.1467 23.2017 90.6765 23.6083 91.3693 24.8026L91.422 24.8938C92.1122 26.0897 91.7023 27.6186 90.5065 28.3088C89.3106 28.9989 87.7817 28.589 87.0915 27.3932L87.0442 27.3113C86.3514 26.117 86.758 24.5872 87.9524 23.8944ZM5.22499 34.7811C6.55848 35.1392 7.34926 36.5104 6.99125 37.8439L6.96679 37.9354C6.6117 39.2696 5.2422 40.0634 3.90793 39.7083C2.57366 39.3532 1.77989 37.9837 2.13498 36.6495L2.16226 36.5474C2.52027 35.2139 3.8915 34.4231 5.22499 34.7811ZM93.1907 34.7812C94.5242 34.4231 95.8954 35.2139 96.2534 36.5474L96.2807 36.6495C96.6358 37.9837 95.842 39.3532 94.5078 39.7083C93.1735 40.0634 91.804 39.2697 91.4489 37.9354L91.4244 37.8439C91.0664 36.5104 91.8572 35.1392 93.1907 34.7812ZM3.00269 46.6576C4.3834 46.659 5.5015 47.7795 5.50003 49.1602L5.5 49.2078L5.50003 49.2555C5.5015 50.6362 4.3834 51.7567 3.00269 51.7581C1.62198 51.7596 0.501498 50.6415 0.500028 49.2608L0.5 49.2078L0.500028 49.1549C0.501498 47.7742 1.62198 46.6561 3.00269 46.6576ZM95.413 46.6576C96.7937 46.6561 97.9142 47.7742 97.9157 49.1549L97.9157 49.2078L97.9157 49.2608C97.9142 50.6415 96.7937 51.7596 95.413 51.7581C94.0323 51.7567 92.9142 50.6362 92.9157 49.2555V49.1602C92.9142 47.7795 94.0323 46.659 95.413 46.6576ZM3.90793 58.7074C5.2422 58.3523 6.6117 59.146 6.96679 60.4803L6.99125 60.5718C7.34926 61.9053 6.55848 63.2765 5.22499 63.6345C3.8915 63.9926 2.52027 63.2018 2.16226 61.8683L2.13498 61.7662C1.77988 60.432 2.57366 59.0625 3.90793 58.7074ZM94.5078 58.7074C95.842 59.0625 96.6358 60.432 96.2807 61.7662L96.2534 61.8683C95.8954 63.2018 94.5242 63.9926 93.1907 63.6346C91.8572 63.2765 91.0664 61.9053 91.4244 60.5718L91.4489 60.4803C91.804 59.146 93.1735 58.3523 94.5078 58.7074ZM7.90924 70.1069C9.10508 69.4167 10.634 69.8267 11.3242 71.0225L11.3715 71.1044C12.0643 72.2987 11.6577 73.8285 10.4633 74.5213C9.269 75.214 7.7392 74.8074 7.04644 73.6131L6.99366 73.5219C6.30348 72.326 6.7134 70.7971 7.90924 70.1069ZM90.5065 70.1069C91.7023 70.7971 92.1122 72.326 91.422 73.5219L91.3693 73.6131C90.6765 74.8074 89.1467 75.214 87.9524 74.5213C86.758 73.8285 86.3514 72.2987 87.0442 71.1044L87.0915 71.0225C87.7817 69.8267 89.3106 69.4168 90.5065 70.1069ZM14.7328 80.0767C15.7101 79.1014 17.293 79.1031 18.2683 80.0805L18.3352 80.1474C19.3126 81.1227 19.3143 82.7056 18.339 83.6829C17.3637 84.6603 15.7808 84.662 14.8035 83.6867L14.729 83.6122C13.7537 82.6349 13.7554 81.052 14.7328 80.0767ZM83.6829 80.0767C84.6603 81.052 84.662 82.6349 83.6867 83.6122L83.6122 83.6867C82.6349 84.662 81.052 84.6603 80.0767 83.6829C79.1014 82.7056 79.1031 81.1227 80.0805 80.1474L80.1474 80.0805C81.1227 79.1031 82.7056 79.1014 83.6829 80.0767ZM23.8944 87.9524C24.5872 86.758 26.117 86.3514 27.3113 87.0442L27.3932 87.0915C28.589 87.7817 28.9989 89.3106 28.3088 90.5065C27.6186 91.7023 26.0897 92.1122 24.8938 91.422L24.8026 91.3693C23.6083 90.6765 23.2017 89.1467 23.8944 87.9524ZM74.5213 87.9524C75.214 89.1467 74.8074 90.6765 73.6131 91.3693L73.5219 91.422C72.326 92.1122 70.7971 91.7023 70.1069 90.5065C69.4167 89.3106 69.8267 87.7817 71.0225 87.0915L71.1044 87.0442C72.2987 86.3514 73.8285 86.758 74.5213 87.9524ZM34.7811 93.1907C35.1392 91.8572 36.5104 91.0664 37.8439 91.4244L37.9354 91.4489C39.2696 91.804 40.0634 93.1735 39.7083 94.5078C39.3532 95.842 37.9837 96.6358 36.6495 96.2807L36.5474 96.2534C35.2139 95.8954 34.4231 94.5242 34.7811 93.1907ZM63.6345 93.1907C63.9926 94.5242 63.2018 95.8954 61.8683 96.2534L61.7662 96.2807C60.432 96.6358 59.0625 95.842 58.7074 94.5078C58.3523 93.1735 59.146 91.804 60.4803 91.4489L60.5718 91.4244C61.9053 91.0664 63.2765 91.8572 63.6345 93.1907ZM46.6576 95.413C46.659 94.0323 47.7795 92.9142 49.1602 92.9157H49.2555C50.6362 92.9142 51.7567 94.0323 51.7581 95.413C51.7596 96.7937 50.6415 97.9142 49.2608 97.9157L49.2078 97.9157L49.1549 97.9157C47.7742 97.9142 46.6561 96.7937 46.6576 95.413Z" fill="#6C7DF7"/>
</svg>
