<?xml version="1.0" standalone="no"?>
<!DOCTYPE svg PUBLIC "-//W3C//DTD SVG 20010904//EN"
 "http://www.w3.org/TR/2001/REC-SVG-20010904/DTD/svg10.dtd">
<svg version="1.0" xmlns="http://www.w3.org/2000/svg"
 width="5200.000000pt" height="5200.000000pt" viewBox="0 0 5200.000000 5200.000000"
 preserveAspectRatio="xMidYMid meet">
<metadata>
Created by potrace 1.14, written by Peter Selinger 2001-2017
</metadata>
<g transform="translate(0.000000,5200.000000) scale(0.100000,-0.100000)"
fill="#000000" stroke="none">
<path d="M5650 51993 c-464 -32 -852 -96 -1258 -209 -1286 -356 -2416 -1136
-3224 -2224 -354 -477 -659 -1061 -853 -1631 -171 -502 -270 -1008 -305 -1549
-8 -116 -10 -6165 -7 -20495 3 -18976 4 -20339 20 -20470 50 -419 103 -699
193 -1023 356 -1286 1136 -2416 2224 -3224 477 -354 1061 -659 1631 -853 502
-171 1008 -270 1549 -305 116 -8 6165 -10 20495 -7 18976 3 20339 4 20470 20
419 50 699 103 1023 193 1286 356 2416 1136 3224 2224 354 477 659 1061 853
1631 171 502 270 1008 305 1549 8 116 10 6165 7 20495 -3 18976 -4 20339 -20
20470 -50 419 -103 699 -193 1023 -356 1286 -1136 2416 -2224 3224 -477 354
-1061 659 -1631 853 -494 168 -993 267 -1534 305 -126 9 -40618 12 -40745 3z
m6840 -16383 l0 -1430 1130 0 1130 0 0 1430 0 1430 660 0 660 0 0 -3500 0
-3500 -660 0 -660 0 0 1440 0 1440 -1130 0 -1130 0 0 -1440 0 -1440 -660 0
-660 0 0 3500 0 3500 660 0 660 0 0 -1430z m18880 -500 l0 -1930 123 0 122 1
658 909 659 910 689 0 689 0 0 -27 c0 -21 -210 -326 -800 -1163 l-800 -1135 0
-95 0 -96 880 -1195 c660 -896 880 -1201 880 -1221 l0 -28 -719 0 -718 0 -709
970 -709 969 -122 1 -123 0 0 -970 0 -970 -630 0 -630 0 0 3500 0 3500 630 0
630 0 0 -1930z m-11977 20 c557 -41 904 -238 1144 -652 l46 -78 93 0 94 0 0
300 0 300 625 0 625 0 2 -1787 c3 -1720 4 -1790 22 -1831 23 -52 92 -115 144
-130 22 -7 96 -12 166 -12 l126 0 0 -600 0 -600 -443 0 c-243 0 -481 5 -527
10 -274 33 -483 171 -585 386 -36 75 -65 195 -65 266 l0 58 -95 0 -94 0 -40
-86 c-98 -208 -282 -429 -450 -539 -339 -222 -903 -292 -1416 -173 -605 140
-1100 551 -1400 1163 -150 306 -219 558 -260 940 -18 167 -20 692 -4 865 35
381 126 711 285 1029 130 261 255 432 457 627 158 152 274 235 467 332 349
176 683 241 1083 212z m6742 0 c591 -38 1051 -199 1430 -500 395 -315 672
-740 809 -1244 19 -66 37 -140 40 -162 l7 -41 -78 -21 c-250 -67 -1132 -292
-1141 -292 -7 0 -14 12 -17 28 -63 309 -167 506 -374 712 -121 120 -196 172
-330 229 -161 68 -341 101 -562 101 -381 0 -668 -116 -925 -374 -153 -153
-256 -315 -327 -511 -129 -359 -108 -954 45 -1260 85 -170 238 -351 387 -459
147 -105 298 -170 501 -213 121 -26 505 -26 634 0 258 52 426 138 586 298 163
165 273 365 340 623 16 59 31 111 34 114 10 9 1226 -300 1226 -312 0 -27 -71
-289 -105 -386 -50 -145 -179 -404 -264 -531 -337 -503 -839 -838 -1438 -959
-720 -145 -1486 -51 -2053 252 -432 232 -751 559 -965 993 -90 182 -136 307
-181 485 -56 227 -75 382 -81 682 -13 589 63 975 275 1407 407 832 1254 1330
2292 1349 41 1 147 -3 235 -8z m-9995 -6720 l0 -630 -930 0 -930 0 0 -2870 0
-2870 -660 0 -660 0 0 2870 0 2870 -930 0 -930 0 0 630 0 630 2520 0 2520 0 0
-630z m2600 -790 l0 -1420 94 0 94 0 17 43 c9 23 41 85 71 139 211 374 566
632 989 717 504 101 1060 -6 1416 -274 354 -265 570 -676 656 -1245 15 -105
17 -265 20 -1827 l4 -1713 -625 0 -625 0 -4 1508 c-3 1489 -4 1508 -25 1618
-40 209 -110 368 -224 510 -117 145 -274 246 -458 296 -75 20 -108 23 -290 23
-179 0 -216 -3 -293 -23 -191 -48 -321 -118 -443 -237 -206 -203 -327 -495
-364 -881 -6 -69 -10 -611 -10 -1461 l0 -1353 -625 0 -625 0 0 3500 0 3500
625 0 625 0 0 -1420z m7355 -490 c384 -27 658 -100 960 -254 557 -284 952
-739 1143 -1319 113 -342 132 -489 132 -1033 l0 -414 -1820 0 -1820 0 6 -47
c26 -230 84 -373 219 -541 150 -186 400 -334 665 -394 94 -21 129 -23 340 -23
240 0 319 9 470 52 217 61 444 242 557 443 15 27 31 50 35 50 9 0 1050 -578
1062 -590 11 -11 -92 -193 -179 -315 -127 -178 -269 -312 -475 -448 -273 -180
-625 -310 -980 -361 -232 -34 -613 -43 -815 -20 -605 68 -1112 301 -1494 685
-210 212 -413 537 -526 844 -68 184 -126 439 -157 695 -8 67 -13 221 -12 425
0 280 3 338 23 465 46 301 114 523 232 760 273 549 707 943 1290 1170 366 142
742 198 1144 170z m-12295 -5960 c441 -28 811 -121 1165 -295 252 -124 413
-242 616 -453 150 -156 232 -273 329 -467 170 -345 218 -557 227 -1017 l6
-278 -661 0 -660 0 -4 208 c-5 221 -14 272 -71 409 -34 84 -120 213 -196 295
-163 176 -356 281 -623 340 -91 20 -132 22 -348 23 -264 0 -336 -9 -504 -62
-166 -52 -345 -164 -433 -271 -55 -67 -106 -172 -129 -262 -25 -101 -16 -299
20 -405 82 -241 276 -393 681 -529 174 -59 385 -111 740 -181 389 -77 576
-124 818 -205 568 -191 976 -461 1197 -792 185 -276 269 -576 286 -1015 22
-563 -105 -1033 -381 -1415 -76 -105 -264 -295 -375 -379 -491 -371 -1195
-552 -1986 -510 -662 35 -1119 172 -1564 467 -404 268 -713 674 -878 1156
-106 306 -151 625 -152 1051 l0 177 659 0 659 0 5 -247 c4 -196 10 -269 26
-347 128 -616 525 -951 1206 -1017 178 -17 512 -7 647 20 126 25 239 61 323
103 198 99 364 287 439 496 29 83 31 94 31 247 0 179 -16 258 -76 378 -147
292 -538 495 -1189 617 -465 87 -698 140 -945 215 -191 58 -298 100 -480 190
-358 176 -590 368 -769 635 -189 282 -273 568 -292 990 -23 532 119 962 445
1351 458 548 1269 836 2191 779z m26850 -3630 l0 -3500 -625 0 -625 0 0 360 0
360 -94 0 -94 0 -42 -77 c-141 -262 -279 -412 -500 -545 -183 -110 -421 -186
-685 -219 -130 -16 -483 -16 -607 0 -429 55 -770 199 -1073 453 -364 305 -626
771 -739 1313 -54 262 -61 355 -61 825 0 469 6 554 61 812 175 828 713 1462
1445 1702 243 80 438 110 714 109 447 0 761 -89 1028 -289 156 -117 314 -303
421 -496 l38 -68 94 0 94 0 0 1380 0 1380 625 0 625 0 0 -3500z m-20715 1590
c959 -71 1731 -564 2118 -1352 137 -280 198 -482 244 -808 22 -158 25 -707 5
-870 -67 -537 -252 -969 -577 -1348 -379 -441 -968 -740 -1630 -828 -157 -20
-511 -23 -660 -5 -845 103 -1501 497 -1900 1141 -173 281 -285 594 -342 964
-21 137 -29 674 -14 845 73 775 447 1419 1066 1833 469 314 1093 472 1690 428z
m12809 0 c238 -20 501 -92 701 -192 275 -138 520 -391 656 -676 91 -190 162
-423 193 -633 32 -216 36 -426 36 -2006 l0 -1583 -630 0 -630 0 0 1478 c0
1011 -4 1505 -11 1567 -34 282 -140 508 -316 676 -177 169 -373 239 -667 239
-311 0 -538 -80 -721 -252 -160 -151 -269 -350 -331 -602 -54 -225 -54 -213
-54 -1717 l0 -1389 -630 0 -630 0 0 2480 0 2480 630 0 630 0 0 -370 0 -370 89
0 89 0 45 93 c71 143 142 243 251 352 314 313 787 467 1300 425z m-7904 -1572
c0 -1477 3 -1600 40 -1768 37 -172 117 -346 211 -458 79 -96 222 -190 357
-236 131 -45 254 -59 451 -53 185 6 264 20 403 70 353 128 588 517 637 1057 7
74 11 601 11 1473 l0 1357 625 0 625 0 0 -2480 0 -2480 -625 0 -625 0 0 360 0
360 -93 0 -92 0 -45 -97 c-137 -299 -363 -517 -664 -639 -380 -153 -936 -160
-1347 -19 -576 199 -964 691 -1078 1365 -39 231 -41 323 -41 2001 l0 1629 625
0 625 0 0 -1442z"/>
<path d="M19315 33924 c-246 -43 -436 -142 -605 -314 -262 -266 -370 -583
-370 -1084 0 -479 91 -780 319 -1054 153 -183 429 -327 698 -363 123 -16 393
-6 503 20 392 90 678 354 819 754 73 208 103 505 83 809 -30 430 -142 702
-388 939 -166 159 -357 254 -588 294 -111 19 -362 18 -471 -1z"/>
<path d="M25645 25985 c-264 -41 -463 -144 -658 -342 -119 -120 -196 -239
-253 -390 l-24 -63 1175 0 1175 0 -6 28 c-52 237 -188 427 -414 578 -160 106
-332 169 -532 194 -110 13 -363 11 -463 -5z"/>
<path d="M37875 17933 c-141 -18 -341 -75 -445 -128 -93 -47 -232 -148 -309
-224 -178 -177 -288 -389 -343 -663 -21 -102 -23 -141 -23 -393 0 -322 10
-399 77 -602 135 -410 445 -686 888 -790 133 -31 405 -42 556 -23 357 44 645
207 850 480 71 93 148 236 187 345 108 304 112 824 8 1142 -62 191 -154 337
-310 494 -199 201 -418 312 -696 354 -91 14 -358 19 -440 8z"/>
<path d="M19480 17920 c-440 -80 -788 -349 -954 -737 -80 -187 -106 -348 -106
-660 0 -346 33 -524 135 -728 66 -132 132 -223 238 -327 80 -79 216 -177 317
-228 77 -39 238 -94 340 -116 121 -27 458 -27 580 -1 486 105 817 396 969 854
54 161 65 250 65 538 0 282 -9 365 -60 526 -35 115 -142 330 -203 411 -174
228 -446 393 -761 463 -120 27 -427 30 -560 5z"/>
</g>
</svg>
